<svg id="visual" viewBox="0 0 960 540" width="960" height="540" xmlns="http://www.w3.org/2000/svg" xmlns:xlink="http://www.w3.org/1999/xlink" version="1.1"><rect width="960" height="540" fill="#0b1118"></rect><g><g transform="translate(747 331)"><path d="M86.4 -30.3C98.1 8.2 84.4 52.8 53.7 75.5C22.9 98.2 -24.8 99.1 -57.3 76.1C-89.8 53.2 -107 6.4 -94.9 -32.6C-82.8 -71.5 -41.4 -102.7 -2.1 -102.1C37.3 -101.4 74.6 -68.9 86.4 -30.3Z" stroke="#0d1820" fill="none" stroke-width="10"></path></g><g transform="translate(281 82)"><path d="M48.2 -15.1C55.1 5.7 48.4 31.5 30.1 45.9C11.8 60.2 -18.1 63.1 -35.7 50.1C-53.3 37.1 -58.6 8.2 -50.6 -14.1C-42.6 -36.3 -21.3 -51.9 -0.3 -51.8C20.6 -51.6 41.3 -35.9 48.2 -15.1Z" stroke="#0d1820" fill="none" stroke-width="10"></path></g><g transform="translate(416 463)"><path d="M57.9 -17.9C65.5 4.3 55.3 33.3 34.3 48.9C13.3 64.5 -18.5 66.9 -36.9 53C-55.3 39.1 -60.3 9 -51.9 -14.4C-43.5 -37.9 -21.7 -54.5 1.7 -55.1C25.2 -55.7 50.4 -40.1 57.9 -17.9Z" stroke="#0d1820" fill="none" stroke-width="10"></path></g><g transform="translate(37 529)"><path d="M44.9 -14.6C51.3 4.9 44.7 28.6 28.8 40.4C12.9 52.1 -12.3 51.8 -30.7 39.1C-49.2 26.4 -61 1.4 -54.8 -18C-48.6 -37.4 -24.3 -51 -2.5 -50.2C19.3 -49.4 38.6 -34.1 44.9 -14.6Z" stroke="#0d1820" fill="none" stroke-width="10"></path></g><g transform="translate(649 16)"><path d="M54.8 -21.2C61.6 3.3 51.4 30 32.6 43.2C13.9 56.5 -13.4 56.3 -33.7 42.5C-53.9 28.7 -67.1 1.3 -60.3 -23.1C-53.5 -47.5 -26.8 -69 -1.4 -68.5C24 -68.1 47.9 -45.7 54.8 -21.2Z" stroke="#0d1820" fill="none" stroke-width="10"></path></g><g transform="translate(948 116)"><path d="M84.1 -26.1C96.9 12.2 86.9 59.1 57 81.5C27.1 104 -22.9 102.1 -57.1 77.5C-91.4 52.8 -110 5.5 -97.9 -31.8C-85.8 -69 -42.9 -96.2 -3.6 -95.1C35.6 -93.9 71.2 -64.3 84.1 -26.1Z" stroke="#0d1820" fill="none" stroke-width="10"></path></g></g></svg>