<svg xmlns="http://www.w3.org/2000/svg" version="1.1" xmlns:xlink="http://www.w3.org/1999/xlink" xmlns:svgjs="http://svgjs.com/svgjs" width="512" height="150" preserveAspectRatio="none" viewBox="0 0 512 150"><g mask="url(&quot;#SvgjsMask1015&quot;)" fill="none"><path d="M101.59 92.48L166.55 129.98L166.55 204.98L101.59 242.48L36.64 204.98L36.64 129.98zM361.41 92.48L426.36 129.98L426.36 204.98L361.41 242.48L296.45 204.98L296.45 129.98zM426.36 -20.02L491.32 17.48L491.32 92.48L426.36 129.98L361.41 92.48L361.41 17.48z" stroke="rgba(153, 42, 50, 1)" stroke-width="2"></path><path d="M94.09 92.48 a7.5 7.5 0 1 0 15 0 a7.5 7.5 0 1 0 -15 0zM159.05 129.98 a7.5 7.5 0 1 0 15 0 a7.5 7.5 0 1 0 -15 0zM159.05 204.98 a7.5 7.5 0 1 0 15 0 a7.5 7.5 0 1 0 -15 0zM94.09 242.48 a7.5 7.5 0 1 0 15 0 a7.5 7.5 0 1 0 -15 0zM29.14 204.98 a7.5 7.5 0 1 0 15 0 a7.5 7.5 0 1 0 -15 0zM29.14 129.98 a7.5 7.5 0 1 0 15 0 a7.5 7.5 0 1 0 -15 0zM353.91 92.48 a7.5 7.5 0 1 0 15 0 a7.5 7.5 0 1 0 -15 0zM418.86 129.98 a7.5 7.5 0 1 0 15 0 a7.5 7.5 0 1 0 -15 0zM418.86 204.98 a7.5 7.5 0 1 0 15 0 a7.5 7.5 0 1 0 -15 0zM353.91 242.48 a7.5 7.5 0 1 0 15 0 a7.5 7.5 0 1 0 -15 0zM288.95 204.98 a7.5 7.5 0 1 0 15 0 a7.5 7.5 0 1 0 -15 0zM288.95 129.98 a7.5 7.5 0 1 0 15 0 a7.5 7.5 0 1 0 -15 0zM418.86 -20.02 a7.5 7.5 0 1 0 15 0 a7.5 7.5 0 1 0 -15 0zM483.82 17.48 a7.5 7.5 0 1 0 15 0 a7.5 7.5 0 1 0 -15 0zM483.82 92.48 a7.5 7.5 0 1 0 15 0 a7.5 7.5 0 1 0 -15 0zM353.91 17.48 a7.5 7.5 0 1 0 15 0 a7.5 7.5 0 1 0 -15 0z" fill="rgba(153, 42, 50, 1)"></path><path d="M134.5 27.87L177.8 52.87L177.8 102.87L134.5 127.87L91.2 102.87L91.2 52.87zM177.8 -47.13L221.1 -22.13L221.1 27.87L177.8 52.87L134.5 27.87L134.5 -22.13zM221.1 27.87L264.4 52.87L264.4 102.87L221.1 127.87L177.8 102.87L177.8 52.87z" stroke="rgba(255, 70, 84, 1)" stroke-width="2"></path></g><defs><mask id="SvgjsMask1015"><rect width="512" height="150" fill="#ffffff"></rect></mask></defs></svg>